<?xml version="1.0" encoding="utf-8"?>
<!-- Generator: Adobe Illustrator 25.2.1, SVG Export Plug-In . SVG Version: 6.00 Build 0)  -->
<svg version="1.1" id="Layer_1" xmlns="http://www.w3.org/2000/svg" xmlns:xlink="http://www.w3.org/1999/xlink" x="0px" y="0px"
	 viewBox="0 0 827.2 1000" style="enable-background:new 0 0 827.2 1000;" xml:space="preserve">
<style type="text/css">
	.st0{fill:#111111;}
	.st1{fill:#FFFFFF;}
</style>
<path class="st0" d="M0,0v1000h827.2V0H0z M70.7,922.2l126.6-219.3l71.8-124.3l144.5-250.4l144.6,250.4h-71.8l-72.8-126l-72.8,126.1
	L269,703l-90.7,157h470.5l-90.7-157.1h71.8l126.6,219.3H70.7z M322.9,671.8l35.9-62.2h290.1L413.6,202.1L178.3,609.6h36.9
	l-35.9,62.2H70.7l342.9-594l342.9,594H322.9z"/>
<polygon class="st1" points="756.5,922.2 70.7,922.2 197.3,702.9 269.1,578.6 413.6,328.2 558.2,578.6 486.4,578.6 413.6,452.6 
	340.8,578.7 269,703 178.3,860 648.8,860 558.1,702.9 629.9,702.9 "/>
<polygon class="st1" points="358.8,609.6 648.9,609.6 413.6,202.1 178.3,609.6 215.2,609.6 179.3,671.8 70.7,671.8 413.6,77.8 
	756.5,671.8 322.9,671.8 "/>
</svg>
